<mxfile host="app.diagrams.net" modified="2024-01-30T19:39:27.382Z" agent="Mozilla/5.0 (Windows NT 10.0; Win64; x64) AppleWebKit/537.36 (KHTML, like Gecko) Chrome/120.0.0.0 Safari/537.36" etag="iwYlZltsC45H3biB4ff5" version="23.0.2" type="github">
  <diagram id="C5RBs43oDa-KdzZeNtuy" name="Page-1">
    <mxGraphModel dx="1366" dy="735" grid="1" gridSize="10" guides="1" tooltips="1" connect="1" arrows="1" fold="1" page="1" pageScale="1" pageWidth="827" pageHeight="1169" math="0" shadow="0">
      <root>
        <mxCell id="WIyWlLk6GJQsqaUBKTNV-0" />
        <mxCell id="WIyWlLk6GJQsqaUBKTNV-1" parent="WIyWlLk6GJQsqaUBKTNV-0" />
        <mxCell id="ld1OROt3E3vUv8dvY4E5-4" style="edgeStyle=orthogonalEdgeStyle;rounded=0;orthogonalLoop=1;jettySize=auto;html=1;exitX=0.5;exitY=1;exitDx=0;exitDy=0;entryX=0.5;entryY=0;entryDx=0;entryDy=0;" edge="1" parent="WIyWlLk6GJQsqaUBKTNV-1" source="ld1OROt3E3vUv8dvY4E5-0" target="ld1OROt3E3vUv8dvY4E5-3">
          <mxGeometry relative="1" as="geometry" />
        </mxCell>
        <mxCell id="ld1OROt3E3vUv8dvY4E5-0" value="start" style="rounded=1;whiteSpace=wrap;html=1;" vertex="1" parent="WIyWlLk6GJQsqaUBKTNV-1">
          <mxGeometry x="270" y="210" width="120" height="60" as="geometry" />
        </mxCell>
        <mxCell id="ld1OROt3E3vUv8dvY4E5-1" style="edgeStyle=orthogonalEdgeStyle;rounded=0;orthogonalLoop=1;jettySize=auto;html=1;exitX=0.5;exitY=1;exitDx=0;exitDy=0;" edge="1" parent="WIyWlLk6GJQsqaUBKTNV-1" source="ld1OROt3E3vUv8dvY4E5-0" target="ld1OROt3E3vUv8dvY4E5-0">
          <mxGeometry relative="1" as="geometry" />
        </mxCell>
        <mxCell id="ld1OROt3E3vUv8dvY4E5-11" style="edgeStyle=orthogonalEdgeStyle;rounded=0;orthogonalLoop=1;jettySize=auto;html=1;entryX=0.5;entryY=0;entryDx=0;entryDy=0;" edge="1" parent="WIyWlLk6GJQsqaUBKTNV-1" target="ld1OROt3E3vUv8dvY4E5-6">
          <mxGeometry relative="1" as="geometry">
            <mxPoint x="413.0009730848863" y="369.76761904761906" as="sourcePoint" />
            <mxPoint x="455.09" y="410.00248587570627" as="targetPoint" />
            <Array as="points">
              <mxPoint x="455" y="370" />
              <mxPoint x="455" y="410" />
            </Array>
          </mxGeometry>
        </mxCell>
        <mxCell id="ld1OROt3E3vUv8dvY4E5-18" style="edgeStyle=orthogonalEdgeStyle;rounded=0;orthogonalLoop=1;jettySize=auto;html=1;exitX=0;exitY=0.5;exitDx=0;exitDy=0;" edge="1" parent="WIyWlLk6GJQsqaUBKTNV-1" source="ld1OROt3E3vUv8dvY4E5-3" target="ld1OROt3E3vUv8dvY4E5-19">
          <mxGeometry relative="1" as="geometry">
            <mxPoint x="140" y="430" as="targetPoint" />
          </mxGeometry>
        </mxCell>
        <mxCell id="ld1OROt3E3vUv8dvY4E5-3" value="is it cleanly diviisible by 4?" style="rhombus;whiteSpace=wrap;html=1;perimeterSpacing=6;" vertex="1" parent="WIyWlLk6GJQsqaUBKTNV-1">
          <mxGeometry x="250" y="330" width="160" height="80" as="geometry" />
        </mxCell>
        <mxCell id="ld1OROt3E3vUv8dvY4E5-9" style="edgeStyle=orthogonalEdgeStyle;rounded=0;orthogonalLoop=1;jettySize=auto;html=1;exitX=1;exitY=0.5;exitDx=0;exitDy=0;entryX=0.5;entryY=0;entryDx=0;entryDy=0;" edge="1" parent="WIyWlLk6GJQsqaUBKTNV-1" source="ld1OROt3E3vUv8dvY4E5-6" target="ld1OROt3E3vUv8dvY4E5-8">
          <mxGeometry relative="1" as="geometry" />
        </mxCell>
        <mxCell id="ld1OROt3E3vUv8dvY4E5-17" style="edgeStyle=orthogonalEdgeStyle;rounded=0;orthogonalLoop=1;jettySize=auto;html=1;exitX=0;exitY=0.5;exitDx=0;exitDy=0;entryX=0.5;entryY=0;entryDx=0;entryDy=0;" edge="1" parent="WIyWlLk6GJQsqaUBKTNV-1" source="ld1OROt3E3vUv8dvY4E5-6" target="ld1OROt3E3vUv8dvY4E5-16">
          <mxGeometry relative="1" as="geometry" />
        </mxCell>
        <mxCell id="ld1OROt3E3vUv8dvY4E5-6" value="is it cleanly diviisible by 100?" style="rhombus;whiteSpace=wrap;html=1;" vertex="1" parent="WIyWlLk6GJQsqaUBKTNV-1">
          <mxGeometry x="370" y="410" width="177" height="100" as="geometry" />
        </mxCell>
        <mxCell id="ld1OROt3E3vUv8dvY4E5-12" style="edgeStyle=orthogonalEdgeStyle;rounded=0;orthogonalLoop=1;jettySize=auto;html=1;exitX=1;exitY=0.5;exitDx=0;exitDy=0;" edge="1" parent="WIyWlLk6GJQsqaUBKTNV-1" source="ld1OROt3E3vUv8dvY4E5-8" target="ld1OROt3E3vUv8dvY4E5-13">
          <mxGeometry relative="1" as="geometry">
            <mxPoint x="750" y="660" as="targetPoint" />
          </mxGeometry>
        </mxCell>
        <mxCell id="ld1OROt3E3vUv8dvY4E5-14" style="edgeStyle=orthogonalEdgeStyle;rounded=0;orthogonalLoop=1;jettySize=auto;html=1;exitX=0;exitY=0.5;exitDx=0;exitDy=0;" edge="1" parent="WIyWlLk6GJQsqaUBKTNV-1" source="ld1OROt3E3vUv8dvY4E5-8" target="ld1OROt3E3vUv8dvY4E5-15">
          <mxGeometry relative="1" as="geometry">
            <mxPoint x="450" y="640" as="targetPoint" />
          </mxGeometry>
        </mxCell>
        <mxCell id="ld1OROt3E3vUv8dvY4E5-8" value="is it cleanly diviisible by 400?" style="rhombus;whiteSpace=wrap;html=1;" vertex="1" parent="WIyWlLk6GJQsqaUBKTNV-1">
          <mxGeometry x="520" y="490" width="180" height="110" as="geometry" />
        </mxCell>
        <mxCell id="ld1OROt3E3vUv8dvY4E5-13" value="Leap" style="rounded=1;whiteSpace=wrap;html=1;" vertex="1" parent="WIyWlLk6GJQsqaUBKTNV-1">
          <mxGeometry x="690" y="630" width="120" height="60" as="geometry" />
        </mxCell>
        <mxCell id="ld1OROt3E3vUv8dvY4E5-15" value="No leap" style="rounded=1;whiteSpace=wrap;html=1;" vertex="1" parent="WIyWlLk6GJQsqaUBKTNV-1">
          <mxGeometry x="390" y="630" width="120" height="60" as="geometry" />
        </mxCell>
        <mxCell id="ld1OROt3E3vUv8dvY4E5-16" value="Leap" style="rounded=1;whiteSpace=wrap;html=1;" vertex="1" parent="WIyWlLk6GJQsqaUBKTNV-1">
          <mxGeometry x="250" y="515" width="120" height="60" as="geometry" />
        </mxCell>
        <mxCell id="ld1OROt3E3vUv8dvY4E5-19" value="Not Leap" style="rounded=1;whiteSpace=wrap;html=1;" vertex="1" parent="WIyWlLk6GJQsqaUBKTNV-1">
          <mxGeometry x="90" y="420" width="120" height="60" as="geometry" />
        </mxCell>
      </root>
    </mxGraphModel>
  </diagram>
</mxfile>
